%TF.GenerationSoftware,KiCad,Pcbnew,5.1.6-c6e7f7d~86~ubuntu18.04.1*%
%TF.CreationDate,2020-07-03T15:57:16-03:00*%
%TF.ProjectId,tpfinal_Driver,74706669-6e61-46c5-9f44-72697665722e,rev?*%
%TF.SameCoordinates,Original*%
%TF.FileFunction,Copper,L1,Top*%
%TF.FilePolarity,Positive*%
%FSLAX46Y46*%
G04 Gerber Fmt 4.6, Leading zero omitted, Abs format (unit mm)*
G04 Created by KiCad (PCBNEW 5.1.6-c6e7f7d~86~ubuntu18.04.1) date 2020-07-03 15:57:16*
%MOMM*%
%LPD*%
G01*
G04 APERTURE LIST*
%TA.AperFunction,ComponentPad*%
%ADD10R,2.000000X1.524000*%
%TD*%
%TA.AperFunction,ComponentPad*%
%ADD11O,2.000000X1.524000*%
%TD*%
%TA.AperFunction,ComponentPad*%
%ADD12C,7.000000*%
%TD*%
%TA.AperFunction,ComponentPad*%
%ADD13O,1.600000X1.600000*%
%TD*%
%TA.AperFunction,ComponentPad*%
%ADD14R,1.600000X1.600000*%
%TD*%
%TA.AperFunction,ComponentPad*%
%ADD15R,1.200000X1.200000*%
%TD*%
%TA.AperFunction,ComponentPad*%
%ADD16C,1.200000*%
%TD*%
%TA.AperFunction,ComponentPad*%
%ADD17C,1.600000*%
%TD*%
%TA.AperFunction,ComponentPad*%
%ADD18O,1.700000X1.700000*%
%TD*%
%TA.AperFunction,ComponentPad*%
%ADD19R,1.700000X1.700000*%
%TD*%
%TA.AperFunction,ComponentPad*%
%ADD20C,1.400000*%
%TD*%
%TA.AperFunction,ComponentPad*%
%ADD21O,1.400000X1.400000*%
%TD*%
%TA.AperFunction,ComponentPad*%
%ADD22R,2.400000X1.600000*%
%TD*%
%TA.AperFunction,ComponentPad*%
%ADD23O,2.400000X1.600000*%
%TD*%
%TA.AperFunction,ComponentPad*%
%ADD24R,1.600000X2.524000*%
%TD*%
%TA.AperFunction,ComponentPad*%
%ADD25R,1.600000X2.540000*%
%TD*%
%TA.AperFunction,ComponentPad*%
%ADD26R,1.905000X2.000000*%
%TD*%
%TA.AperFunction,ComponentPad*%
%ADD27O,1.905000X2.000000*%
%TD*%
%TA.AperFunction,ViaPad*%
%ADD28C,1.800000*%
%TD*%
%TA.AperFunction,Conductor*%
%ADD29C,1.000000*%
%TD*%
G04 APERTURE END LIST*
D10*
%TO.P,XA1,1*%
%TO.N,+3V3*%
X128778000Y-95758000D03*
D11*
%TO.P,XA1,2*%
%TO.N,+5V*%
X131318000Y-95758000D03*
%TO.P,XA1,11*%
%TO.N,Net-(XA1-Pad11)*%
X128778000Y-108458000D03*
%TO.P,XA1,4*%
%TO.N,Net-(XA1-Pad4)*%
X131318000Y-98298000D03*
%TO.P,XA1,13*%
%TO.N,Net-(XA1-Pad13)*%
X128778000Y-110998000D03*
%TO.P,XA1,6*%
%TO.N,Net-(XA1-Pad6)*%
X131318000Y-100838000D03*
%TO.P,XA1,15*%
%TO.N,Net-(XA1-Pad15)*%
X128778000Y-113538000D03*
%TO.P,XA1,8*%
%TO.N,Net-(XA1-Pad8)*%
X131318000Y-103378000D03*
%TO.P,XA1,17*%
%TO.N,Net-(XA1-Pad17)*%
X128778000Y-116078000D03*
%TO.P,XA1,10*%
%TO.N,Net-(XA1-Pad10)*%
X131318000Y-105918000D03*
%TO.P,XA1,19*%
%TO.N,Net-(XA1-Pad19)*%
X128778000Y-118618000D03*
%TO.P,XA1,12*%
%TO.N,Net-(XA1-Pad12)*%
X131318000Y-108458000D03*
%TO.P,XA1,21*%
%TO.N,Net-(XA1-Pad21)*%
X128778000Y-121158000D03*
%TO.P,XA1,14*%
%TO.N,Net-(XA1-Pad14)*%
X131318000Y-110998000D03*
%TO.P,XA1,23*%
%TO.N,Net-(XA1-Pad23)*%
X128778000Y-123698000D03*
%TO.P,XA1,16*%
%TO.N,Net-(XA1-Pad16)*%
X131318000Y-113538000D03*
%TO.P,XA1,25*%
%TO.N,Net-(XA1-Pad25)*%
X128778000Y-126238000D03*
%TO.P,XA1,18*%
%TO.N,Net-(XA1-Pad18)*%
X131318000Y-116078000D03*
%TO.P,XA1,27*%
%TO.N,Net-(XA1-Pad27)*%
X128778000Y-128778000D03*
%TO.P,XA1,20*%
%TO.N,Net-(XA1-Pad20)*%
X131318000Y-118618000D03*
%TO.P,XA1,29*%
%TO.N,Net-(U3-Pad7)*%
X128778000Y-131318000D03*
%TO.P,XA1,22*%
%TO.N,Net-(XA1-Pad22)*%
X131318000Y-121158000D03*
%TO.P,XA1,31*%
%TO.N,Net-(U3-Pad3)*%
X128778000Y-133858000D03*
%TO.P,XA1,24*%
%TO.N,Net-(XA1-Pad24)*%
X131318000Y-123698000D03*
%TO.P,XA1,26*%
%TO.N,Net-(XA1-Pad26)*%
X131318000Y-126238000D03*
%TO.P,XA1,33*%
%TO.N,Net-(U3-Pad9)*%
X128778000Y-136398000D03*
%TO.P,XA1,28*%
%TO.N,Net-(XA1-Pad28)*%
X131318000Y-128778000D03*
%TO.P,XA1,32*%
%TO.N,Net-(U3-Pad4)*%
X131318000Y-133858000D03*
%TO.P,XA1,34*%
%TO.N,Net-(U3-Pad2)*%
X131318000Y-136398000D03*
%TO.P,XA1,36*%
%TO.N,Net-(XA1-Pad36)*%
X131318000Y-138938000D03*
%TO.P,XA1,38*%
%TO.N,Net-(XA1-Pad38)*%
X131318000Y-141478000D03*
%TO.P,XA1,35*%
%TO.N,Net-(XA1-Pad35)*%
X128778000Y-138938000D03*
%TO.P,XA1,37*%
%TO.N,Net-(XA1-Pad37)*%
X128778000Y-141478000D03*
%TO.P,XA1,3*%
%TO.N,GND*%
X128778000Y-98298000D03*
%TO.P,XA1,5*%
%TO.N,Net-(XA1-Pad5)*%
X128778000Y-100838000D03*
%TO.P,XA1,7*%
%TO.N,Net-(XA1-Pad7)*%
X128778000Y-103378000D03*
%TO.P,XA1,9*%
%TO.N,Net-(XA1-Pad9)*%
X128778000Y-105918000D03*
%TO.P,XA1,39*%
%TO.N,Net-(XA1-Pad39)*%
X128778000Y-144018000D03*
%TO.P,XA1,40*%
%TO.N,Net-(XA1-Pad40)*%
X131318000Y-144018000D03*
%TO.P,XA1,30*%
%TO.N,Net-(XA1-Pad30)*%
X131318000Y-131318000D03*
D10*
%TO.P,XA1,41*%
%TO.N,+3.3VA*%
X57658000Y-95758000D03*
D11*
%TO.P,XA1,42*%
%TO.N,+5VA*%
X60198000Y-95758000D03*
%TO.P,XA1,43*%
%TO.N,Net-(XA1-Pad43)*%
X57658000Y-98298000D03*
%TO.P,XA1,44*%
%TO.N,GND*%
X60198000Y-98298000D03*
%TO.P,XA1,45*%
%TO.N,Net-(XA1-Pad45)*%
X57658000Y-100838000D03*
%TO.P,XA1,46*%
%TO.N,Net-(XA1-Pad46)*%
X60198000Y-100838000D03*
%TO.P,XA1,47*%
%TO.N,Net-(XA1-Pad47)*%
X57658000Y-103378000D03*
%TO.P,XA1,48*%
%TO.N,Net-(XA1-Pad48)*%
X60198000Y-103378000D03*
%TO.P,XA1,49*%
%TO.N,Net-(XA1-Pad49)*%
X57658000Y-105918000D03*
%TO.P,XA1,50*%
%TO.N,Net-(XA1-Pad50)*%
X60198000Y-105918000D03*
%TO.P,XA1,51*%
%TO.N,Net-(XA1-Pad51)*%
X57658000Y-108458000D03*
%TO.P,XA1,52*%
%TO.N,Net-(XA1-Pad52)*%
X60198000Y-108458000D03*
%TO.P,XA1,53*%
%TO.N,Net-(XA1-Pad53)*%
X57658000Y-110998000D03*
%TO.P,XA1,54*%
%TO.N,Net-(XA1-Pad54)*%
X60198000Y-110998000D03*
%TO.P,XA1,55*%
%TO.N,Net-(XA1-Pad55)*%
X57658000Y-113538000D03*
%TO.P,XA1,56*%
%TO.N,Net-(XA1-Pad56)*%
X60198000Y-113538000D03*
%TO.P,XA1,57*%
%TO.N,Net-(XA1-Pad57)*%
X57658000Y-116078000D03*
%TO.P,XA1,58*%
%TO.N,Net-(XA1-Pad58)*%
X60198000Y-116078000D03*
%TO.P,XA1,59*%
%TO.N,Net-(XA1-Pad59)*%
X57658000Y-118618000D03*
%TO.P,XA1,60*%
%TO.N,Net-(XA1-Pad60)*%
X60198000Y-118618000D03*
%TO.P,XA1,61*%
%TO.N,Net-(XA1-Pad61)*%
X57658000Y-121158000D03*
%TO.P,XA1,62*%
%TO.N,Net-(XA1-Pad62)*%
X60198000Y-121158000D03*
%TO.P,XA1,63*%
%TO.N,Net-(XA1-Pad63)*%
X57658000Y-123698000D03*
%TO.P,XA1,64*%
%TO.N,Net-(XA1-Pad64)*%
X60198000Y-123698000D03*
%TO.P,XA1,65*%
%TO.N,Net-(XA1-Pad65)*%
X57658000Y-126238000D03*
%TO.P,XA1,66*%
%TO.N,Net-(XA1-Pad66)*%
X60198000Y-126238000D03*
%TO.P,XA1,67*%
%TO.N,Net-(XA1-Pad67)*%
X57658000Y-128778000D03*
%TO.P,XA1,68*%
%TO.N,Net-(XA1-Pad68)*%
X60198000Y-128778000D03*
%TO.P,XA1,69*%
%TO.N,Net-(XA1-Pad69)*%
X57658000Y-131318000D03*
%TO.P,XA1,70*%
%TO.N,Net-(XA1-Pad70)*%
X60198000Y-131318000D03*
%TO.P,XA1,71*%
%TO.N,Net-(XA1-Pad71)*%
X57658000Y-133858000D03*
%TO.P,XA1,72*%
%TO.N,Net-(A1-Pad15)*%
X60198000Y-133858000D03*
%TO.P,XA1,73*%
%TO.N,Net-(J7-Pad1)*%
X57658000Y-136398000D03*
%TO.P,XA1,74*%
%TO.N,Net-(A1-Pad16)*%
X60198000Y-136398000D03*
%TO.P,XA1,75*%
%TO.N,Net-(A3-Pad16)*%
X57658000Y-138938000D03*
%TO.P,XA1,76*%
%TO.N,Net-(A2-Pad15)*%
X60198000Y-138938000D03*
%TO.P,XA1,77*%
%TO.N,Net-(XA1-Pad77)*%
X57658000Y-141478000D03*
%TO.P,XA1,78*%
%TO.N,Net-(A2-Pad16)*%
X60198000Y-141478000D03*
%TO.P,XA1,79*%
%TO.N,Net-(XA1-Pad79)*%
X57658000Y-144018000D03*
%TO.P,XA1,80*%
%TO.N,Net-(A3-Pad15)*%
X60198000Y-144018000D03*
D12*
%TO.P,XA1,~*%
%TO.N,N/C*%
X55753000Y-164592000D03*
X132080000Y-164592000D03*
X55753000Y-37211000D03*
X132080000Y-37084000D03*
%TD*%
D13*
%TO.P,A1,16*%
%TO.N,Net-(A1-Pad16)*%
X85598000Y-89662000D03*
%TO.P,A1,8*%
%TO.N,+12V*%
X98298000Y-71882000D03*
%TO.P,A1,15*%
%TO.N,Net-(A1-Pad15)*%
X85598000Y-87122000D03*
%TO.P,A1,7*%
%TO.N,Net-(A1-Pad7)*%
X98298000Y-74422000D03*
%TO.P,A1,14*%
%TO.N,+3V3*%
X85598000Y-84582000D03*
%TO.P,A1,6*%
%TO.N,Net-(A1-Pad6)*%
X98298000Y-76962000D03*
%TO.P,A1,13*%
%TO.N,+3V3*%
X85598000Y-82042000D03*
%TO.P,A1,5*%
%TO.N,Net-(A1-Pad5)*%
X98298000Y-79502000D03*
%TO.P,A1,12*%
%TO.N,Net-(A1-Pad12)*%
X85598000Y-79502000D03*
%TO.P,A1,4*%
%TO.N,Net-(A1-Pad4)*%
X98298000Y-82042000D03*
%TO.P,A1,11*%
%TO.N,Net-(A1-Pad11)*%
X85598000Y-76962000D03*
%TO.P,A1,3*%
%TO.N,Net-(A1-Pad3)*%
X98298000Y-84582000D03*
%TO.P,A1,10*%
%TO.N,Net-(A1-Pad10)*%
X85598000Y-74422000D03*
%TO.P,A1,2*%
%TO.N,Net-(A1-Pad2)*%
X98298000Y-87122000D03*
%TO.P,A1,9*%
%TO.N,Net-(A1-Pad9)*%
X85598000Y-71882000D03*
D14*
%TO.P,A1,1*%
%TO.N,GND*%
X98298000Y-89662000D03*
%TD*%
%TO.P,A2,1*%
%TO.N,GND*%
X98298000Y-116332000D03*
D13*
%TO.P,A2,9*%
%TO.N,Net-(A2-Pad9)*%
X85598000Y-98552000D03*
%TO.P,A2,2*%
%TO.N,Net-(A2-Pad2)*%
X98298000Y-113792000D03*
%TO.P,A2,10*%
%TO.N,Net-(A2-Pad10)*%
X85598000Y-101092000D03*
%TO.P,A2,3*%
%TO.N,Net-(A2-Pad3)*%
X98298000Y-111252000D03*
%TO.P,A2,11*%
%TO.N,Net-(A2-Pad11)*%
X85598000Y-103632000D03*
%TO.P,A2,4*%
%TO.N,Net-(A2-Pad4)*%
X98298000Y-108712000D03*
%TO.P,A2,12*%
%TO.N,Net-(A2-Pad12)*%
X85598000Y-106172000D03*
%TO.P,A2,5*%
%TO.N,Net-(A2-Pad5)*%
X98298000Y-106172000D03*
%TO.P,A2,13*%
%TO.N,+3V3*%
X85598000Y-108712000D03*
%TO.P,A2,6*%
%TO.N,Net-(A2-Pad6)*%
X98298000Y-103632000D03*
%TO.P,A2,14*%
%TO.N,+3V3*%
X85598000Y-111252000D03*
%TO.P,A2,7*%
%TO.N,Net-(A2-Pad7)*%
X98298000Y-101092000D03*
%TO.P,A2,15*%
%TO.N,Net-(A2-Pad15)*%
X85598000Y-113792000D03*
%TO.P,A2,8*%
%TO.N,+12V*%
X98298000Y-98552000D03*
%TO.P,A2,16*%
%TO.N,Net-(A2-Pad16)*%
X85598000Y-116332000D03*
%TD*%
D14*
%TO.P,A3,1*%
%TO.N,GND*%
X98806000Y-143256000D03*
D13*
%TO.P,A3,9*%
%TO.N,Net-(A3-Pad9)*%
X86106000Y-125476000D03*
%TO.P,A3,2*%
%TO.N,Net-(A3-Pad2)*%
X98806000Y-140716000D03*
%TO.P,A3,10*%
%TO.N,Net-(A3-Pad10)*%
X86106000Y-128016000D03*
%TO.P,A3,3*%
%TO.N,Net-(A3-Pad3)*%
X98806000Y-138176000D03*
%TO.P,A3,11*%
%TO.N,Net-(A3-Pad11)*%
X86106000Y-130556000D03*
%TO.P,A3,4*%
%TO.N,Net-(A3-Pad4)*%
X98806000Y-135636000D03*
%TO.P,A3,12*%
%TO.N,Net-(A3-Pad12)*%
X86106000Y-133096000D03*
%TO.P,A3,5*%
%TO.N,Net-(A3-Pad5)*%
X98806000Y-133096000D03*
%TO.P,A3,13*%
%TO.N,+3V3*%
X86106000Y-135636000D03*
%TO.P,A3,6*%
%TO.N,Net-(A3-Pad6)*%
X98806000Y-130556000D03*
%TO.P,A3,14*%
%TO.N,+3V3*%
X86106000Y-138176000D03*
%TO.P,A3,7*%
%TO.N,Net-(A3-Pad7)*%
X98806000Y-128016000D03*
%TO.P,A3,15*%
%TO.N,Net-(A3-Pad15)*%
X86106000Y-140716000D03*
%TO.P,A3,8*%
%TO.N,+12V*%
X98806000Y-125476000D03*
%TO.P,A3,16*%
%TO.N,Net-(A3-Pad16)*%
X86106000Y-143256000D03*
%TD*%
D15*
%TO.P,C1,1*%
%TO.N,GND*%
X106934000Y-94742000D03*
D16*
%TO.P,C1,2*%
%TO.N,+12V*%
X106934000Y-92742000D03*
%TD*%
D15*
%TO.P,C2,1*%
%TO.N,GND*%
X106680000Y-121158000D03*
D16*
%TO.P,C2,2*%
%TO.N,+12V*%
X106680000Y-119158000D03*
%TD*%
%TO.P,C3,2*%
%TO.N,+12V*%
X107188000Y-143288000D03*
D15*
%TO.P,C3,1*%
%TO.N,GND*%
X107188000Y-145288000D03*
%TD*%
D17*
%TO.P,C4,1*%
%TO.N,Net-(C4-Pad1)*%
X87790000Y-57780000D03*
%TO.P,C4,2*%
%TO.N,GND*%
X82790000Y-57780000D03*
%TD*%
%TO.P,C5,2*%
%TO.N,GND*%
X56642000Y-76788000D03*
%TO.P,C5,1*%
%TO.N,+12V*%
X56642000Y-81788000D03*
%TD*%
%TO.P,C7,1*%
%TO.N,+5V*%
X69850000Y-79502000D03*
D13*
%TO.P,C7,2*%
%TO.N,GND*%
X62350000Y-79502000D03*
%TD*%
D18*
%TO.P,J1,4*%
%TO.N,Net-(A1-Pad6)*%
X108204000Y-76962000D03*
%TO.P,J1,3*%
%TO.N,Net-(A1-Pad5)*%
X108204000Y-79502000D03*
%TO.P,J1,2*%
%TO.N,Net-(A1-Pad3)*%
X108204000Y-82042000D03*
D19*
%TO.P,J1,1*%
%TO.N,Net-(A1-Pad4)*%
X108204000Y-84582000D03*
%TD*%
%TO.P,J2,1*%
%TO.N,Net-(A2-Pad4)*%
X107950000Y-111252000D03*
D18*
%TO.P,J2,2*%
%TO.N,Net-(A2-Pad3)*%
X107950000Y-108712000D03*
%TO.P,J2,3*%
%TO.N,Net-(A2-Pad5)*%
X107950000Y-106172000D03*
%TO.P,J2,4*%
%TO.N,Net-(A2-Pad6)*%
X107950000Y-103632000D03*
%TD*%
D19*
%TO.P,J3,1*%
%TO.N,Net-(A3-Pad4)*%
X107950000Y-138176000D03*
D18*
%TO.P,J3,2*%
%TO.N,Net-(A3-Pad3)*%
X107950000Y-135636000D03*
%TO.P,J3,3*%
%TO.N,Net-(A3-Pad5)*%
X107950000Y-133096000D03*
%TO.P,J3,4*%
%TO.N,Net-(A3-Pad6)*%
X107950000Y-130556000D03*
%TD*%
%TO.P,J4,6*%
%TO.N,Net-(A3-Pad12)*%
X78486000Y-133096000D03*
%TO.P,J4,5*%
%TO.N,+5V*%
X75946000Y-133096000D03*
%TO.P,J4,4*%
%TO.N,Net-(A3-Pad11)*%
X78486000Y-130556000D03*
%TO.P,J4,3*%
%TO.N,+5V*%
X75946000Y-130556000D03*
%TO.P,J4,2*%
%TO.N,Net-(A3-Pad10)*%
X78486000Y-128016000D03*
D19*
%TO.P,J4,1*%
%TO.N,+5V*%
X75946000Y-128016000D03*
%TD*%
%TO.P,J5,1*%
%TO.N,+5V*%
X75946000Y-101092000D03*
D18*
%TO.P,J5,2*%
%TO.N,Net-(A2-Pad10)*%
X78486000Y-101092000D03*
%TO.P,J5,3*%
%TO.N,+5V*%
X75946000Y-103632000D03*
%TO.P,J5,4*%
%TO.N,Net-(A2-Pad11)*%
X78486000Y-103632000D03*
%TO.P,J5,5*%
%TO.N,+5V*%
X75946000Y-106172000D03*
%TO.P,J5,6*%
%TO.N,Net-(A2-Pad12)*%
X78486000Y-106172000D03*
%TD*%
D19*
%TO.P,J6,1*%
%TO.N,+5V*%
X75946000Y-74422000D03*
D18*
%TO.P,J6,2*%
%TO.N,Net-(A1-Pad10)*%
X78486000Y-74422000D03*
%TO.P,J6,3*%
%TO.N,+5V*%
X75946000Y-76962000D03*
%TO.P,J6,4*%
%TO.N,Net-(A1-Pad11)*%
X78486000Y-76962000D03*
%TO.P,J6,5*%
%TO.N,+5V*%
X75946000Y-79502000D03*
%TO.P,J6,6*%
%TO.N,Net-(A1-Pad12)*%
X78486000Y-79502000D03*
%TD*%
D19*
%TO.P,J7,1*%
%TO.N,Net-(J7-Pad1)*%
X57150000Y-88138000D03*
D18*
%TO.P,J7,2*%
%TO.N,+12V*%
X59690000Y-88138000D03*
%TO.P,J7,3*%
%TO.N,GND*%
X62230000Y-88138000D03*
%TD*%
D19*
%TO.P,J8,1*%
%TO.N,Net-(J8-Pad1)*%
X57480000Y-48050000D03*
D18*
%TO.P,J8,2*%
%TO.N,Net-(J8-Pad2)*%
X57480000Y-50590000D03*
%TO.P,J8,3*%
%TO.N,Net-(J8-Pad3)*%
X57480000Y-53130000D03*
%TO.P,J8,4*%
%TO.N,Net-(J8-Pad4)*%
X57480000Y-55670000D03*
%TO.P,J8,5*%
%TO.N,Net-(J8-Pad5)*%
X57480000Y-58210000D03*
%TO.P,J8,6*%
%TO.N,Net-(J8-Pad6)*%
X57480000Y-60750000D03*
%TO.P,J8,7*%
%TO.N,Net-(J8-Pad7)*%
X57480000Y-63290000D03*
%TO.P,J8,8*%
%TO.N,Net-(J8-Pad8)*%
X57480000Y-65830000D03*
%TD*%
D19*
%TO.P,J9,1*%
%TO.N,Net-(C4-Pad1)*%
X85530000Y-51920000D03*
D18*
%TO.P,J9,2*%
%TO.N,GND*%
X82990000Y-51920000D03*
%TD*%
D20*
%TO.P,R1,1*%
%TO.N,Net-(R1-Pad1)*%
X83780000Y-63160000D03*
D21*
%TO.P,R1,2*%
%TO.N,+5V*%
X83780000Y-68240000D03*
%TD*%
D22*
%TO.P,U2,1*%
%TO.N,Net-(U2-Pad1)*%
X77480000Y-68020000D03*
D23*
%TO.P,U2,10*%
%TO.N,Net-(J8-Pad5)*%
X69860000Y-47700000D03*
%TO.P,U2,2*%
%TO.N,/reg12*%
X77480000Y-65480000D03*
%TO.P,U2,11*%
%TO.N,Net-(J8-Pad6)*%
X69860000Y-50240000D03*
%TO.P,U2,3*%
%TO.N,Net-(U2-Pad3)*%
X77480000Y-62940000D03*
%TO.P,U2,12*%
%TO.N,Net-(J8-Pad7)*%
X69860000Y-52780000D03*
%TO.P,U2,4*%
%TO.N,Net-(R1-Pad1)*%
X77480000Y-60400000D03*
%TO.P,U2,13*%
%TO.N,Net-(J8-Pad8)*%
X69860000Y-55320000D03*
%TO.P,U2,5*%
%TO.N,GND*%
X77480000Y-57860000D03*
%TO.P,U2,14*%
%TO.N,+5V*%
X69860000Y-57860000D03*
%TO.P,U2,6*%
%TO.N,Net-(U2-Pad6)*%
X77480000Y-55320000D03*
%TO.P,U2,15*%
%TO.N,Net-(J8-Pad4)*%
X69860000Y-60400000D03*
%TO.P,U2,7*%
%TO.N,Net-(U2-Pad7)*%
X77480000Y-52780000D03*
%TO.P,U2,16*%
%TO.N,Net-(J8-Pad3)*%
X69860000Y-62940000D03*
%TO.P,U2,8*%
%TO.N,Net-(U2-Pad8)*%
X77480000Y-50240000D03*
%TO.P,U2,17*%
%TO.N,Net-(J8-Pad1)*%
X69860000Y-65480000D03*
%TO.P,U2,9*%
%TO.N,Net-(U2-Pad9)*%
X77480000Y-47700000D03*
%TO.P,U2,18*%
%TO.N,Net-(J8-Pad2)*%
X69860000Y-68020000D03*
%TD*%
D24*
%TO.P,U3,10*%
%TO.N,Net-(U3-Pad10)*%
X130526000Y-68612000D03*
D25*
%TO.P,U3,9*%
%TO.N,Net-(U3-Pad9)*%
X128026000Y-68612000D03*
%TO.P,U3,8*%
%TO.N,Net-(U3-Pad8)*%
X125526000Y-68612000D03*
%TO.P,U3,7*%
%TO.N,Net-(U3-Pad7)*%
X123026000Y-68612000D03*
%TO.P,U3,6*%
%TO.N,Net-(U3-Pad6)*%
X120526000Y-68612000D03*
%TO.P,U3,5*%
%TO.N,+3V3*%
X118026000Y-68612000D03*
%TO.P,U3,4*%
%TO.N,Net-(U3-Pad4)*%
X115526000Y-68612000D03*
%TO.P,U3,3*%
%TO.N,Net-(U3-Pad3)*%
X113026000Y-68612000D03*
%TO.P,U3,2*%
%TO.N,Net-(U3-Pad2)*%
X110526000Y-68612000D03*
%TO.P,U3,1*%
%TO.N,Net-(U3-Pad1)*%
X108026000Y-68612000D03*
%TO.P,U3,20*%
%TO.N,Net-(U2-Pad9)*%
X108026000Y-57612000D03*
%TO.P,U3,18*%
%TO.N,Net-(U2-Pad7)*%
X113026000Y-57612000D03*
%TO.P,U3,12*%
%TO.N,/reg12*%
X128026000Y-57612000D03*
%TO.P,U3,15*%
%TO.N,GND*%
X120526000Y-57612000D03*
%TO.P,U3,16*%
%TO.N,+5V*%
X118026000Y-57612000D03*
%TO.P,U3,19*%
%TO.N,Net-(U2-Pad8)*%
X110526000Y-57612000D03*
%TO.P,U3,14*%
%TO.N,Net-(U3-Pad14)*%
X123026000Y-57612000D03*
%TO.P,U3,13*%
%TO.N,Net-(U3-Pad13)*%
X125526000Y-57612000D03*
D24*
%TO.P,U3,11*%
%TO.N,Net-(U3-Pad11)*%
X130526000Y-57612000D03*
D25*
%TO.P,U3,17*%
%TO.N,Net-(U2-Pad6)*%
X115526000Y-57612000D03*
%TD*%
D26*
%TO.P,U1,1*%
%TO.N,Net-(C4-Pad1)*%
X94180000Y-53580000D03*
D27*
%TO.P,U1,2*%
%TO.N,GND*%
X96720000Y-53580000D03*
%TO.P,U1,3*%
%TO.N,+12V*%
X99260000Y-53580000D03*
%TD*%
D28*
%TO.N,Net-(A1-Pad16)*%
X73152000Y-98044000D03*
X79502000Y-98044000D03*
%TO.N,+12V*%
X102890000Y-59990000D03*
X102840000Y-69710000D03*
%TO.N,Net-(A1-Pad15)*%
X73152000Y-95758000D03*
X78740000Y-95758000D03*
%TO.N,+3V3*%
X93726000Y-67564000D03*
X98234000Y-67564000D03*
%TO.N,Net-(A1-Pad4)*%
X101346000Y-82042000D03*
X101330000Y-86480000D03*
%TO.N,GND*%
X125990000Y-80810000D03*
X133383653Y-51486353D03*
X133340000Y-56250000D03*
X132570000Y-80960000D03*
%TO.N,Net-(A2-Pad4)*%
X101346000Y-108712000D03*
X101380000Y-112930000D03*
%TO.N,Net-(A2-Pad15)*%
X73152000Y-120904000D03*
X78740000Y-120904000D03*
%TO.N,Net-(A2-Pad16)*%
X73406000Y-123190000D03*
X78740000Y-123190000D03*
%TO.N,Net-(A3-Pad4)*%
X101600000Y-135890000D03*
X101630000Y-140030000D03*
%TO.N,+5V*%
X94220000Y-61550000D03*
X88360000Y-67540000D03*
X88360000Y-63370000D03*
X99620000Y-61600000D03*
%TO.N,Net-(J8-Pad1)*%
X63060000Y-67561998D03*
X63100000Y-48010000D03*
%TO.N,Net-(J8-Pad2)*%
X65100000Y-67890000D03*
X65083629Y-50213629D03*
%TO.N,Net-(J8-Pad3)*%
X60220000Y-67950000D03*
X60280000Y-53080000D03*
%TO.N,/reg12*%
X94210000Y-65100000D03*
X98270000Y-65140000D03*
%TO.N,Net-(U2-Pad8)*%
X102010000Y-47470000D03*
X109030000Y-47520000D03*
%TO.N,Net-(U3-Pad4)*%
X134874000Y-92202000D03*
X121920000Y-92202000D03*
%TO.N,Net-(U3-Pad9)*%
X128060000Y-85850000D03*
X118618000Y-85852000D03*
%TD*%
D29*
%TO.N,Net-(A1-Pad16)*%
X73152000Y-98044000D02*
X79502000Y-98044000D01*
%TO.N,+12V*%
X102890000Y-59990000D02*
X102890000Y-69660000D01*
X102890000Y-69660000D02*
X102840000Y-69710000D01*
%TO.N,Net-(A1-Pad15)*%
X73152000Y-95758000D02*
X78740000Y-95758000D01*
%TO.N,+3V3*%
X93726000Y-67564000D02*
X98234000Y-67564000D01*
X98274000Y-67564000D02*
X98234000Y-67564000D01*
%TO.N,Net-(A1-Pad4)*%
X101346000Y-82042000D02*
X101600000Y-82042000D01*
X101346000Y-86446000D02*
X101430000Y-86530000D01*
X101346000Y-82042000D02*
X101346000Y-86446000D01*
%TO.N,GND*%
X133380000Y-51660000D02*
X133383653Y-51656347D01*
X133383653Y-51486353D02*
X133383653Y-51656347D01*
X133383653Y-56206347D02*
X133340000Y-56250000D01*
X133383653Y-51486353D02*
X133383653Y-56206347D01*
X126140000Y-80960000D02*
X125990000Y-80810000D01*
X132570000Y-80960000D02*
X126140000Y-80960000D01*
%TO.N,Net-(A2-Pad4)*%
X101346000Y-112896000D02*
X101380000Y-112930000D01*
X101346000Y-108712000D02*
X101346000Y-112896000D01*
%TO.N,Net-(A2-Pad15)*%
X73152000Y-120904000D02*
X78740000Y-120904000D01*
%TO.N,Net-(A2-Pad16)*%
X73406000Y-123190000D02*
X78740000Y-123190000D01*
%TO.N,Net-(A3-Pad4)*%
X101600000Y-140000000D02*
X101630000Y-140030000D01*
X101600000Y-135890000D02*
X101600000Y-140000000D01*
%TO.N,+5V*%
X88360000Y-67540000D02*
X88360000Y-63370000D01*
X94270000Y-61600000D02*
X94220000Y-61550000D01*
X99620000Y-61600000D02*
X94270000Y-61600000D01*
%TO.N,Net-(J8-Pad1)*%
X63060000Y-67561998D02*
X63060000Y-48050000D01*
X63060000Y-48050000D02*
X63100000Y-48010000D01*
%TO.N,Net-(J8-Pad2)*%
X65100000Y-67890000D02*
X65100000Y-50230000D01*
X65100000Y-50230000D02*
X65083629Y-50213629D01*
%TO.N,Net-(J8-Pad3)*%
X60220000Y-67950000D02*
X60220000Y-53140000D01*
X60220000Y-53140000D02*
X60280000Y-53080000D01*
%TO.N,/reg12*%
X94250000Y-65140000D02*
X94210000Y-65100000D01*
X98270000Y-65140000D02*
X94250000Y-65140000D01*
%TO.N,Net-(U2-Pad8)*%
X102010000Y-47470000D02*
X108980000Y-47470000D01*
X108980000Y-47470000D02*
X109030000Y-47520000D01*
%TO.N,Net-(U3-Pad4)*%
X134874000Y-92202000D02*
X121920000Y-92202000D01*
%TO.N,Net-(U3-Pad9)*%
X128058000Y-85852000D02*
X128060000Y-85850000D01*
X118618000Y-85852000D02*
X128058000Y-85852000D01*
%TD*%
M02*
