M48
; DRILL file {KiCad 5.1.6-c6e7f7d~86~ubuntu18.04.1} date Fri Jun 19 20:25:28 2020
; FORMAT={-:-/ absolute / inch / decimal}
; #@! TF.CreationDate,2020-06-19T20:25:28-03:00
; #@! TF.GenerationSoftware,Kicad,Pcbnew,5.1.6-c6e7f7d~86~ubuntu18.04.1
; #@! TF.FileFunction,Plated,1,12,PTH
FMAT,2
INCH
T1C0.0236
T2C0.0276
T3C0.0300
T4C0.0315
T5C0.0394
T6C0.0400
T7C0.0433
T8C0.1575
%
G90
G05
T1
X4.2Y-4.6913
X4.2Y-4.77
X4.22Y-5.6413
X4.22Y-5.72
X4.21Y-3.6513
X4.21Y-3.73
T2
X3.2984Y-2.4866
X3.2984Y-2.6866
T3
X4.253Y-2.2682
X4.253Y-2.7013
X4.3514Y-2.2682
X4.3514Y-2.7013
X4.4498Y-2.2682
X4.4498Y-2.7013
X4.5483Y-2.2682
X4.5483Y-2.7013
X4.6467Y-2.2682
X4.6467Y-2.7013
X4.7451Y-2.2682
X4.7451Y-2.7013
X4.8435Y-2.2682
X4.8435Y-2.7013
X4.942Y-2.2682
X4.942Y-2.7013
X5.0404Y-2.2682
X5.0404Y-2.7013
X5.1388Y-2.2682
X5.1388Y-2.7013
T4
X3.37Y-3.88
X3.37Y-3.98
X3.37Y-4.08
X3.37Y-4.18
X3.37Y-4.28
X3.37Y-4.38
X3.37Y-4.48
X3.37Y-4.58
X3.87Y-3.88
X3.87Y-3.98
X3.87Y-4.08
X3.87Y-4.18
X3.87Y-4.28
X3.87Y-4.38
X3.87Y-4.48
X3.87Y-4.58
X3.2594Y-2.2748
X3.4563Y-2.2748
X3.39Y-4.94
X3.39Y-5.04
X3.39Y-5.14
X3.39Y-5.24
X3.39Y-5.34
X3.39Y-5.44
X3.39Y-5.54
X3.39Y-5.64
X3.89Y-4.94
X3.89Y-5.04
X3.89Y-5.14
X3.89Y-5.24
X3.89Y-5.34
X3.89Y-5.44
X3.89Y-5.54
X3.89Y-5.64
X2.23Y-3.0231
X2.23Y-3.22
X3.37Y-2.83
X3.37Y-2.93
X3.37Y-3.03
X3.37Y-3.13
X3.37Y-3.23
X3.37Y-3.33
X3.37Y-3.43
X3.37Y-3.53
X3.87Y-2.83
X3.87Y-2.93
X3.87Y-3.03
X3.87Y-3.13
X3.87Y-3.23
X3.87Y-3.33
X3.87Y-3.43
X3.87Y-3.53
X2.7504Y-1.878
X2.7504Y-1.978
X2.7504Y-2.078
X2.7504Y-2.178
X2.7504Y-2.278
X2.7504Y-2.378
X2.7504Y-2.478
X2.7504Y-2.578
X2.7504Y-2.678
X3.0504Y-1.878
X3.0504Y-1.978
X3.0504Y-2.078
X3.0504Y-2.178
X3.0504Y-2.278
X3.0504Y-2.378
X3.0504Y-2.478
X3.0504Y-2.578
X3.0504Y-2.678
X2.4547Y-3.13
X2.75Y-3.13
T5
X2.3709Y-2.6752
X2.3732Y-2.0898
X2.4827Y-2.6599
X2.4843Y-1.8902
X2.5623Y-1.9769
X2.563Y-2.6728
X2.88Y-3.77
X2.88Y-3.86
X2.88Y-4.76
X2.89Y-4.85
X3.1Y-3.77
X3.1Y-4.76
X3.1Y-4.85
X3.13Y-3.86
X3.4787Y-2.4949
X3.4787Y-2.6591
X3.69Y-2.66
X3.7091Y-2.563
X3.7094Y-2.4232
X3.8675Y-2.66
X3.8689Y-2.5646
X3.922Y-2.4252
X3.99Y-3.23
X3.99Y-4.28
X4.0Y-5.35
X4.0161Y-1.8689
X4.0488Y-2.7445
X4.0508Y-2.3618
X4.1Y-3.33
X4.11Y-4.38
X4.13Y-5.44
X4.2925Y-1.8709
X4.67Y-3.38
X4.8Y-3.63
X4.9602Y-3.1815
X5.0417Y-3.3799
X5.2193Y-3.1874
X5.2496Y-2.2146
X5.2513Y-2.027
X5.31Y-3.63
X3.2673Y-2.0441
X3.3673Y-2.0441
X2.99Y-2.93
X2.99Y-3.03
X2.99Y-3.13
X3.09Y-2.93
X3.09Y-3.03
X3.09Y-3.13
X2.99Y-3.98
X2.99Y-4.08
X2.99Y-4.18
X3.09Y-3.98
X3.09Y-4.08
X3.09Y-4.18
X4.25Y-5.14
X4.25Y-5.24
X4.25Y-5.34
X4.25Y-5.44
X2.263Y-1.8917
X2.263Y-1.9917
X2.263Y-2.0917
X2.263Y-2.1917
X2.263Y-2.2917
X2.263Y-2.3917
X2.263Y-2.4917
X2.263Y-2.5917
X4.25Y-4.08
X4.25Y-4.18
X4.25Y-4.28
X4.25Y-4.38
X2.25Y-3.47
X2.35Y-3.47
X2.45Y-3.47
X2.99Y-5.04
X2.99Y-5.14
X2.99Y-5.24
X3.09Y-5.04
X3.09Y-5.14
X3.09Y-5.24
X4.26Y-3.03
X4.26Y-3.13
X4.26Y-3.23
X4.26Y-3.33
T6
X2.27Y-3.77
X2.27Y-3.87
X2.27Y-3.97
X2.27Y-4.07
X2.27Y-4.17
X2.27Y-4.27
X2.27Y-4.37
X2.27Y-4.47
X2.27Y-4.57
X2.27Y-4.67
X2.27Y-4.77
X2.27Y-4.87
X2.27Y-4.97
X2.27Y-5.07
X2.27Y-5.17
X2.27Y-5.27
X2.27Y-5.37
X2.27Y-5.47
X2.27Y-5.57
X2.27Y-5.67
X2.37Y-3.77
X2.37Y-3.87
X2.37Y-3.97
X2.37Y-4.07
X2.37Y-4.17
X2.37Y-4.27
X2.37Y-4.37
X2.37Y-4.47
X2.37Y-4.57
X2.37Y-4.67
X2.37Y-4.77
X2.37Y-4.87
X2.37Y-4.97
X2.37Y-5.07
X2.37Y-5.17
X2.37Y-5.27
X2.37Y-5.37
X2.37Y-5.47
X2.37Y-5.57
X2.37Y-5.67
X5.07Y-3.77
X5.07Y-3.87
X5.07Y-3.97
X5.07Y-4.07
X5.07Y-4.17
X5.07Y-4.27
X5.07Y-4.37
X5.07Y-4.47
X5.07Y-4.57
X5.07Y-4.67
X5.07Y-4.77
X5.07Y-4.87
X5.07Y-4.97
X5.07Y-5.07
X5.07Y-5.17
X5.07Y-5.27
X5.07Y-5.37
X5.07Y-5.47
X5.07Y-5.57
X5.07Y-5.67
X5.17Y-3.77
X5.17Y-3.87
X5.17Y-3.97
X5.17Y-4.07
X5.17Y-4.17
X5.17Y-4.27
X5.17Y-4.37
X5.17Y-4.47
X5.17Y-4.57
X5.17Y-4.67
X5.17Y-4.77
X5.17Y-4.87
X5.17Y-4.97
X5.17Y-5.07
X5.17Y-5.17
X5.17Y-5.27
X5.17Y-5.37
X5.17Y-5.47
X5.17Y-5.57
X5.17Y-5.67
T7
X3.702Y-2.1197
X3.802Y-2.1197
X3.902Y-2.1197
T8
X2.195Y-1.465
X2.195Y-6.48
X5.2Y-1.46
X5.2Y-6.48
T0
M30
